# xmcd CD database file
#
# Track frame offsets:
#	150
#	34369
#	63884
#	98341
#	122863
#	160148
#	189817
#	215637
#	249270
#	283167
#
# Disc length: 4078 seconds
#
# Revision: 0
# Processed by: cddbd v1.5.2PL0 Copyright (c) Steve Scherf et al.
# Submitted via: CDex 1.51
#
DISCID=850fec0a
DTITLE=Herbie Hancock - River (The Joni  letters)
DYEAR=2007
DGENRE=Jazz
TTITLE0=Court and sparks
TTITLE1=Edith and the kingpin
TTITLE2=Both sides now
TTITLE3=River
TTITLE4=Sweet bird
TTITLE5=Tea leaf prophecy
TTITLE6=Solitude
TTITLE7=Amelia
TTITLE8=Nefertiti
TTITLE9=The jungle line
EXTD=YEAR: 2007
EXTT0=
EXTT1=
EXTT2=
EXTT3=
EXTT4=
EXTT5=
EXTT6=
EXTT7=
EXTT8=
EXTT9=
PLAYORDER=
